<svg width="273" height="95" viewBox="0 0 273 95" fill="none" xmlns="http://www.w3.org/2000/svg">
<path d="M27.336 5.032C31.048 5.032 34.344 5.64 37.224 6.856C40.104 8.008 42.888 9.768 45.576 12.136L38.952 20.008C37.16 18.472 35.4 17.352 33.672 16.648C31.944 15.88 30.088 15.496 28.104 15.496C19.208 15.496 14.76 23.56 14.76 39.688C14.76 48.008 15.944 54.088 18.312 57.928C20.68 61.768 23.976 63.688 28.2 63.688C30.44 63.688 32.424 63.24 34.152 62.344C35.88 61.448 37.768 60.168 39.816 58.504L46.248 66.28C44.008 68.712 41.288 70.696 38.088 72.232C34.888 73.768 31.336 74.536 27.432 74.536C21.992 74.536 17.224 73.256 13.128 70.696C9.096 68.072 5.96 64.168 3.72 58.984C1.48 53.736 0.36 47.304 0.36 39.688C0.36 32.2 1.512 25.864 3.816 20.68C6.12 15.496 9.32 11.592 13.416 8.96799C17.512 6.344 22.152 5.032 27.336 5.032ZM87.6975 59.56C87.6975 61.352 87.9215 62.664 88.3695 63.496C88.8815 64.328 89.7135 65 90.8655 65.512L88.0815 74.344C85.2655 74.024 82.9615 73.32 81.1695 72.232C79.4415 71.144 78.0975 69.448 77.1375 67.144C74.0015 72.072 69.4255 74.536 63.4095 74.536C58.8655 74.536 55.2175 73.096 52.4655 70.216C49.7775 67.272 48.4335 63.464 48.4335 58.792C48.4335 53.288 50.2895 49.064 54.0015 46.12C57.7135 43.176 63.0575 41.704 70.0335 41.704H74.5455V38.824C74.5455 35.688 73.9375 33.512 72.7215 32.296C71.5695 31.016 69.6175 30.376 66.8655 30.376C63.5375 30.376 59.4735 31.272 54.6735 33.064L51.6975 24.328C54.5135 23.112 57.4255 22.184 60.4335 21.544C63.5055 20.904 66.3855 20.584 69.0735 20.584C75.4095 20.584 80.0815 22.056 83.0895 25C86.1615 27.944 87.6975 32.328 87.6975 38.152V59.56ZM67.2495 64.936C70.3855 64.936 72.8175 63.08 74.5455 59.368V49.288H71.3775C68.1135 49.288 65.6815 49.992 64.0815 51.4C62.4815 52.744 61.6815 54.824 61.6815 57.64C61.6815 60.008 62.1615 61.832 63.1215 63.112C64.0815 64.328 65.4575 64.936 67.2495 64.936ZM125.051 20.584C130.683 20.584 134.907 22.92 137.723 27.592C140.602 32.2 142.042 38.824 142.042 47.464C142.042 52.84 141.307 57.576 139.835 61.672C138.363 65.704 136.251 68.872 133.499 71.176C130.747 73.416 127.515 74.536 123.803 74.536C119.195 74.536 115.451 72.744 112.571 69.16V92.584L99.2265 94.024V22.12H111.035L111.707 27.976C115.163 23.048 119.611 20.584 125.051 20.584ZM119.963 64.552C125.467 64.552 128.219 58.888 128.219 47.56C128.219 41.288 127.579 36.904 126.299 34.408C125.083 31.848 123.259 30.568 120.827 30.568C117.627 30.568 114.875 32.648 112.571 36.808V59.848C114.619 62.984 117.083 64.552 119.963 64.552ZM177.66 20.584C181.628 20.584 184.764 21.928 187.068 24.616C189.372 27.304 190.524 30.92 190.524 35.464V73H177.18V37.288C177.18 34.92 176.796 33.224 176.028 32.2C175.324 31.176 174.236 30.664 172.764 30.664C169.948 30.664 167.196 33 164.508 37.672V73H151.164V1.86399L164.508 0.519995V27.976C166.364 25.48 168.348 23.624 170.46 22.408C172.572 21.192 174.972 20.584 177.66 20.584ZM226.276 20.776C227.94 20.776 229.444 21 230.788 21.448L228.58 34.312C227.236 33.928 225.892 33.736 224.548 33.736C221.86 33.736 219.78 34.76 218.308 36.808C216.836 38.792 215.684 41.832 214.852 45.928V73H201.508V22.12H213.124L214.18 31.336C215.396 27.944 217.028 25.352 219.076 23.56C221.124 21.704 223.524 20.776 226.276 20.776ZM269.479 59.56C269.479 61.352 269.703 62.664 270.151 63.496C270.663 64.328 271.495 65 272.647 65.512L269.863 74.344C267.047 74.024 264.743 73.32 262.951 72.232C261.223 71.144 259.879 69.448 258.919 67.144C255.783 72.072 251.207 74.536 245.191 74.536C240.647 74.536 236.999 73.096 234.247 70.216C231.559 67.272 230.215 63.464 230.215 58.792C230.215 53.288 232.071 49.064 235.783 46.12C239.495 43.176 244.839 41.704 251.815 41.704H256.327V38.824C256.327 35.688 255.719 33.512 254.503 32.296C253.351 31.016 251.399 30.376 248.647 30.376C245.319 30.376 241.255 31.272 236.455 33.064L233.479 24.328C236.295 23.112 239.207 22.184 242.215 21.544C245.287 20.904 248.167 20.584 250.855 20.584C257.191 20.584 261.863 22.056 264.871 25C267.943 27.944 269.479 32.328 269.479 38.152V59.56ZM249.031 64.936C252.167 64.936 254.599 63.08 256.327 59.368V49.288H253.159C249.895 49.288 247.463 49.992 245.863 51.4C244.263 52.744 243.463 54.824 243.463 57.64C243.463 60.008 243.943 61.832 244.903 63.112C245.863 64.328 247.239 64.936 249.031 64.936Z" fill="#2DC7ED"/>
</svg>
