<svg width="266" height="93" viewBox="0 0 266 93" fill="none" xmlns="http://www.w3.org/2000/svg">
<path d="M26.048 4.704C29.504 4.704 32.512 5.248 35.072 6.336C37.632 7.36 40.16 8.992 42.656 11.232L38.048 16.608C36.192 15.008 34.336 13.824 32.48 13.056C30.688 12.288 28.704 11.904 26.528 11.904C21.536 11.904 17.568 14.048 14.624 18.336C11.68 22.56 10.208 29.408 10.208 38.88C10.208 48.096 11.68 54.912 14.624 59.328C17.568 63.68 21.536 65.856 26.528 65.856C29.024 65.856 31.168 65.408 32.96 64.512C34.752 63.616 36.704 62.304 38.816 60.576L43.328 65.856C38.528 70.784 32.768 73.248 26.048 73.248C21.12 73.248 16.736 71.968 12.896 69.408C9.12 66.848 6.144 63.008 3.968 57.888C1.856 52.704 0.8 46.368 0.8 38.88C0.8 31.456 1.888 25.184 4.064 20.064C6.304 14.944 9.312 11.104 13.088 8.544C16.928 5.984 21.248 4.704 26.048 4.704ZM83.0765 60.48C83.0765 62.528 83.3645 64.064 83.9405 65.088C84.5165 66.048 85.4125 66.784 86.6285 67.296L84.8045 73.152C82.3085 72.768 80.3565 72 78.9485 70.848C77.5405 69.696 76.5485 67.936 75.9725 65.568C72.7085 70.688 68.1325 73.248 62.2445 73.248C57.7645 73.248 54.2125 71.872 51.5885 69.12C48.9645 66.304 47.6525 62.56 47.6525 57.888C47.6525 52.512 49.4125 48.416 52.9325 45.6C56.4525 42.784 61.4765 41.376 68.0045 41.376H74.5325V37.056C74.5325 33.536 73.7965 31.008 72.3245 29.472C70.9165 27.872 68.5805 27.072 65.3165 27.072C61.7965 27.072 57.7005 27.968 53.0285 29.76L50.9165 23.712C56.5485 21.408 61.7965 20.256 66.6605 20.256C77.6045 20.256 83.0765 25.728 83.0765 36.672V60.48ZM64.2605 66.72C68.7405 66.72 72.1645 64.096 74.5325 58.848V46.944H68.9645C60.6445 46.944 56.4845 50.432 56.4845 57.408C56.4845 60.416 57.1565 62.72 58.5005 64.32C59.8445 65.92 61.7645 66.72 64.2605 66.72ZM120.443 20.256C125.947 20.256 130.075 22.528 132.827 27.072C135.643 31.616 137.051 38.112 137.051 46.56C137.051 54.752 135.483 61.248 132.347 66.048C129.275 70.848 124.955 73.248 119.387 73.248C114.395 73.248 110.363 71.232 107.291 67.2V91.2L98.651 92.256V21.504H106.235L106.715 28.32C110.171 22.944 114.747 20.256 120.443 20.256ZM117.371 66.336C124.475 66.336 128.027 59.776 128.027 46.656C128.027 39.808 127.195 34.848 125.531 31.776C123.931 28.64 121.467 27.072 118.139 27.072C115.899 27.072 113.915 27.744 112.187 29.088C110.459 30.432 108.827 32.256 107.291 34.56V60.096C109.915 64.256 113.275 66.336 117.371 66.336ZM172.305 20.256C176.337 20.256 179.473 21.6 181.713 24.288C184.017 26.976 185.169 30.624 185.169 35.232V72H176.529V36.288C176.529 33.024 175.953 30.688 174.801 29.28C173.713 27.808 172.081 27.072 169.905 27.072C165.681 27.072 161.841 30.08 158.385 36.096V72H149.745V1.152L158.385 0.191998V28.704C160.241 25.952 162.289 23.872 164.529 22.464C166.769 20.992 169.361 20.256 172.305 20.256ZM221.106 20.352C222.77 20.352 224.21 20.544 225.426 20.928L223.986 29.28C222.77 28.896 221.458 28.704 220.05 28.704C217.234 28.704 214.93 29.824 213.138 32.064C211.41 34.304 210.034 37.728 209.01 42.336V72H200.37V21.504H207.858L208.53 31.488C211.026 24.064 215.218 20.352 221.106 20.352ZM262.327 60.48C262.327 62.528 262.615 64.064 263.191 65.088C263.767 66.048 264.663 66.784 265.879 67.296L264.055 73.152C261.559 72.768 259.607 72 258.199 70.848C256.791 69.696 255.799 67.936 255.223 65.568C251.959 70.688 247.383 73.248 241.495 73.248C237.015 73.248 233.463 71.872 230.839 69.12C228.215 66.304 226.903 62.56 226.903 57.888C226.903 52.512 228.663 48.416 232.183 45.6C235.703 42.784 240.727 41.376 247.255 41.376H253.783V37.056C253.783 33.536 253.047 31.008 251.575 29.472C250.167 27.872 247.831 27.072 244.567 27.072C241.047 27.072 236.951 27.968 232.279 29.76L230.167 23.712C235.799 21.408 241.047 20.256 245.911 20.256C256.855 20.256 262.327 25.728 262.327 36.672V60.48ZM243.511 66.72C247.991 66.72 251.415 64.096 253.783 58.848V46.944H248.215C239.895 46.944 235.734 50.432 235.734 57.408C235.734 60.416 236.407 62.72 237.751 64.32C239.095 65.92 241.015 66.72 243.511 66.72Z" fill="#388BB0"/>
</svg>
